<svg xmlns="http://www.w3.org/2000/svg" width="220" height="220" viewBox="0 0 220 220">
  <g id="Logo_RIGHT_BOTTOM_circle" data-name="Logo RIGHT BOTTOM circle">
    <g>
      <circle cx="106.79" cy="106.98" r="18.08"/>
      <path d="M106.79,145.57A38.59,38.59,0,1,1,145.37,107,38.63,38.63,0,0,1,106.79,145.57Zm0-73.18A34.59,34.59,0,1,0,141.37,107,34.63,34.63,0,0,0,106.79,72.39Z"/>
      <path d="M106.79,183.86A76.88,76.88,0,1,1,183.66,107,77,77,0,0,1,106.79,183.86Zm0-145.76A68.88,68.88,0,1,0,175.66,107,69,69,0,0,0,106.79,38.1Z"/>
      <path d="M106.79,213.37A106.39,106.39,0,1,1,213.18,107v.43h-2V107A104.4,104.4,0,1,0,106.79,211.37H107v2Z"/>
      <g>
        <path d="M119.9,208.28a1.7,1.7,0,0,0-.3-.62,1.9,1.9,0,0,0-.55-.46,2.12,2.12,0,0,0-.7-.27,2.38,2.38,0,0,0-.8,0,3.4,3.4,0,0,0-.68.15,1.79,1.79,0,0,0-.53.3,1.28,1.28,0,0,0-.34.46,1.21,1.21,0,0,0-.07.61,1.14,1.14,0,0,0,.27.68,1.58,1.58,0,0,0,.53.37,3,3,0,0,0,.68.18l.72.14,2.77.6a4.31,4.31,0,0,1,1.1.42,3.45,3.45,0,0,1,.93.73,3.93,3.93,0,0,1,.68,1.06A4.43,4.43,0,0,1,124,214a4.84,4.84,0,0,1-.17,2,4.4,4.4,0,0,1-.94,1.64,5.05,5.05,0,0,1-1.59,1.17,7,7,0,0,1-3.77.58,5.46,5.46,0,0,1-1.44-.4,4.61,4.61,0,0,1-1.18-.74,3.92,3.92,0,0,1-.85-1.05l-1,.11-.32-2.92,3.51-.39.07.6a2.2,2.2,0,0,0,.23.79,1.69,1.69,0,0,0,.49.6,2,2,0,0,0,.76.34,3,3,0,0,0,1,0,2,2,0,0,0,1.29-.55,1.44,1.44,0,0,0,.33-1.17,1.12,1.12,0,0,0-.23-.6,1.39,1.39,0,0,0-.46-.37,2.76,2.76,0,0,0-.59-.22l-.64-.15-2.3-.47a6.14,6.14,0,0,1-1.28-.41,4.08,4.08,0,0,1-1.13-.76,4.17,4.17,0,0,1-.86-1.15,4.58,4.58,0,0,1-.44-1.58,4.29,4.29,0,0,1,.18-1.91,4,4,0,0,1,.93-1.5,5,5,0,0,1,1.57-1,7.31,7.31,0,0,1,2.07-.52,6.4,6.4,0,0,1,1.7,0,5.67,5.67,0,0,1,1.43.41,4.6,4.6,0,0,1,1.12.69,3.54,3.54,0,0,1,.75.86l1-.11.32,2.93-3.51.39Z"/>
        <path d="M129.6,214.71l1.49-.37-2.28-9.26-1.74.42.45,1.86-3.09.76-1.07-4.37,13.08-3.21,1.07,4.37-3.11.76-.46-1.86-2,.49,2.28,9.27,1.52-.38.63,2.6-6.15,1.52Z"/>
        <path d="M149.49,211.56a6.41,6.41,0,0,1-1.89.48,6.5,6.5,0,0,1-1.87-.06,7.2,7.2,0,0,1-1.8-.55,7.8,7.8,0,0,1-1.61-1A8.35,8.35,0,0,1,141,209a8.21,8.21,0,0,1-1-1.79,8.56,8.56,0,0,1-.55-2,8.68,8.68,0,0,1,0-2,7.24,7.24,0,0,1,.44-1.85,6.77,6.77,0,0,1,.88-1.66,6.69,6.69,0,0,1,1.29-1.37,6.44,6.44,0,0,1,1.67-1,6.76,6.76,0,0,1,1.89-.49,7.36,7.36,0,0,1,1.88.06,7.22,7.22,0,0,1,1.8.56,7.67,7.67,0,0,1,1.62,1,8.35,8.35,0,0,1,1.36,1.42,8.42,8.42,0,0,1,1.55,3.78,7.67,7.67,0,0,1,0,2,7.42,7.42,0,0,1-.44,1.86,7,7,0,0,1-.88,1.66,6.64,6.64,0,0,1-1.29,1.36A6.41,6.41,0,0,1,149.49,211.56Zm-1.17-2.83a3.35,3.35,0,0,0,1.3-.94,3.86,3.86,0,0,0,.75-1.38,4.73,4.73,0,0,0,.16-1.65,5.78,5.78,0,0,0-.41-1.75,5.46,5.46,0,0,0-1-1.54,4.59,4.59,0,0,0-1.29-1.06,3.9,3.9,0,0,0-1.51-.46,3.43,3.43,0,0,0-2.85,1.18,3.69,3.69,0,0,0-.74,1.38,5,5,0,0,0-.18,1.66,5.71,5.71,0,0,0,1.36,3.3,4.88,4.88,0,0,0,1.29,1.05,3.9,3.9,0,0,0,1.5.46A3.44,3.44,0,0,0,148.32,208.73Z"/>
        <path d="M151.87,194.08l6.7-4.06a5.65,5.65,0,0,1,1.92-.76,4.59,4.59,0,0,1,1.77,0,3.77,3.77,0,0,1,1.49.65,3.87,3.87,0,0,1,1.1,1.18,5.09,5.09,0,0,1,.55,1.21,3.5,3.5,0,0,1,.12,1.1,3.64,3.64,0,0,1-.25,1.06,5.36,5.36,0,0,1-.56,1.05,2.45,2.45,0,0,1,1.16.21,3.82,3.82,0,0,1,1.19.86l1.42,1.38,1.05-.63,1.51,2.46L167.36,202,165,199.3a4.43,4.43,0,0,0-.79-.78,2,2,0,0,0-.8-.39,1.89,1.89,0,0,0-.85,0,3.34,3.34,0,0,0-.95.42l-1.08.65,1.67,2.76,1.16-.71,1.39,2.29-5.24,3.18-1.39-2.29,1.31-.79-4.89-8.08-1.32.8Zm5.48-.18,1.86,3.07,1.66-1a4.41,4.41,0,0,0,.8-.61,2.17,2.17,0,0,0,.49-.67,1.62,1.62,0,0,0,.13-.72,1.74,1.74,0,0,0-.27-.77,1.57,1.57,0,0,0-1.22-.82,2.9,2.9,0,0,0-1.79.52Z"/>
        <path d="M172.62,195.66l1-.92-6.32-7-1,.93-1.8-2,4.53-4.08,10.39,5-4.13-10.65,4.59-4.14,1.8,2-1,.92,6.32,7,1-.91,1.79,2-4.11,3.7-1.79-2,.75-.68-5.7-6.33L183,189.68l-2,1.84-10.53-5,5.5,6.11.82-.74,1.79,2-4.13,3.72Z"/>
        <path d="M183.39,168.05l6.67-9.31,4.11,2.94-1.85,2.58-1.69-1.21-2,2.85,2.54,1.81,1.77-2.47,2.31,1.66-1.77,2.47,2.6,1.86.91-1.27,2.18,1.56-3.7,5.15-2.17-1.56.89-1.24-7.44-5.34-.9,1.25Z"/>
        <path d="M190.22,158.58l3-5.61,2.37,1.25-.58,1.1,3.94-.17-2-3.44-.66,1.25-2.38-1.25,2.95-5.61,2.38,1.25-.51,1L201.9,155l3.06,1.62.84-1.59,2.37,1.24-3.08,5.84-2.36-1.24.76-1.45-3.1-1.64-7.18.9-.61,1.15Z"/>
        <path d="M203.55,139.57a1.61,1.61,0,0,0-.69,0,2,2,0,0,0-.66.28,2.73,2.73,0,0,0-.56.52,2.44,2.44,0,0,0-.38.69,3.08,3.08,0,0,0-.17.68,1.75,1.75,0,0,0,0,.61,1.1,1.1,0,0,0,.26.5,1.21,1.21,0,0,0,.52.34,1.15,1.15,0,0,0,.72.06,1.67,1.67,0,0,0,.57-.31,3,3,0,0,0,.47-.53c.14-.21.29-.4.44-.59l1.76-2.22a4.67,4.67,0,0,1,.86-.8,3.52,3.52,0,0,1,1.07-.51,3.9,3.9,0,0,1,1.25-.14,4.49,4.49,0,0,1,1.41.29,4.76,4.76,0,0,1,1.71,1,4.3,4.3,0,0,1,1.05,1.56,5.13,5.13,0,0,1,.35,2,6.59,6.59,0,0,1-.43,2.19,6.76,6.76,0,0,1-.72,1.45,5.6,5.6,0,0,1-1,1.11,4.77,4.77,0,0,1-1.19.73,3.74,3.74,0,0,1-1.32.3l-.34.95-2.76-1,1.2-3.32.57.21a2.38,2.38,0,0,0,.81.14,1.73,1.73,0,0,0,.75-.18,1.87,1.87,0,0,0,.64-.53,2.79,2.79,0,0,0,.49-.89,2,2,0,0,0,.08-1.4,1.4,1.4,0,0,0-.91-.81,1,1,0,0,0-.64-.06,1.34,1.34,0,0,0-.53.24,3.23,3.23,0,0,0-.47.44l-.41.5L206,144.91a6.08,6.08,0,0,1-.93,1,4.38,4.38,0,0,1-1.19.68,4.25,4.25,0,0,1-1.4.26,4.84,4.84,0,0,1-1.61-.3,4.43,4.43,0,0,1-1.64-1,3.86,3.86,0,0,1-.93-1.5,4.77,4.77,0,0,1-.24-1.87,7.48,7.48,0,0,1,.45-2.09,6.12,6.12,0,0,1,.77-1.51,5.61,5.61,0,0,1,1-1.1,4.19,4.19,0,0,1,1.11-.7,3.38,3.38,0,0,1,1.11-.29l.33-.92,2.77,1-1.21,3.32Z"/>
        <path d="M201.08,133.52l1.55-6.14,2.6.65-.38,1.52,9.16,2.31.38-1.51,2.6.65-1.55,6.15-2.6-.66.38-1.48-9.17-2.32-.37,1.49Z"/>
        <path d="M203.09,126.07l.8-6.28,2.67.34-.2,1.55,4.27.54-3.5-5.22-2.83-.36.64-5,2.85.36-.14,1.1,3.58,5.43,5.35-4.09.15-1.19,2.88.37-.62,4.87-2.88-.37-5.33,4.13,4.95.63.2-1.55,2.65.34-.8,6.28-2.66-.33.2-1.52-9.37-1.2-.19,1.52Z"/>
      </g>
    </g>
  </g>
</svg>
