<?xml version="1.0" standalone="no"?>
<!DOCTYPE svg PUBLIC "-//W3C//DTD SVG 20010904//EN"
 "http://www.w3.org/TR/2001/REC-SVG-20010904/DTD/svg10.dtd">
<svg version="1.0" xmlns="http://www.w3.org/2000/svg"
 width="700.000000pt" height="700.000000pt" viewBox="0 0 700.000000 700.000000"
 preserveAspectRatio="xMidYMid meet">
<metadata>
Created by potrace 1.11, written by Peter Selinger 2001-2013
</metadata>
<g transform="translate(0.000000,700.000000) scale(0.100000,-0.100000)"
fill="#000000" stroke="none">
<path d="M3178 6975 c-1 -1 -39 -6 -83 -9 -97 -7 -153 -14 -225 -26 -30 -5
-73 -12 -95 -16 -22 -3 -43 -8 -46 -10 -4 -2 -24 -6 -45 -10 -45 -7 -158 -36
-259 -66 -38 -12 -74 -22 -80 -24 -19 -4 -210 -76 -252 -95 -24 -10 -45 -19
-48 -19 -15 0 -293 -144 -390 -202 -244 -146 -438 -299 -655 -517 -266 -267
-451 -523 -621 -856 -169 -334 -304 -767 -335 -1077 -3 -35 -8 -65 -9 -68 -17
-28 -25 -470 -12 -645 46 -592 264 -1203 602 -1681 166 -235 435 -525 624
-672 19 -15 48 -39 65 -53 153 -127 462 -314 691 -417 254 -115 580 -215 820
-252 39 -6 81 -13 95 -15 87 -15 278 -30 390 -30 101 0 99 -1 91 53 -1 4 -31
8 -69 8 -82 2 -275 14 -303 19 -12 2 -40 6 -63 9 -136 16 -356 61 -471 96 -16
5 -61 19 -100 30 -38 12 -79 25 -90 30 -11 4 -68 26 -126 49 -640 244 -1228
732 -1597 1326 -217 350 -373 748 -447 1140 -72 381 -77 717 -19 1135 2 19 16
91 30 160 144 693 511 1332 1029 1792 50 44 101 90 115 102 47 42 215 164 315
228 396 255 869 431 1328 493 27 4 58 8 68 10 91 18 495 25 664 13 391 -29
812 -145 1190 -328 127 -61 334 -180 381 -219 5 -4 19 -13 30 -19 30 -16 180
-128 238 -177 276 -236 471 -450 646 -710 362 -539 562 -1178 569 -1822 1 -52
2 -53 31 -53 29 0 30 2 31 48 1 26 1 49 1 52 0 3 -3 57 -6 120 -3 63 -8 124
-10 135 -2 11 -7 54 -12 95 -4 41 -8 77 -9 80 -1 3 -5 28 -9 55 -51 315 -180
695 -342 1004 -395 752 -1028 1305 -1837 1607 -163 61 -257 87 -472 133 -179
38 -201 41 -403 60 -82 8 -496 13 -504 6z"/>
<path d="M3367 6044 c-1 -1 -54 -4 -117 -8 -121 -7 -298 -30 -365 -48 -22 -5
-50 -12 -61 -14 -120 -22 -346 -105 -517 -190 -234 -117 -423 -251 -611 -433
-285 -278 -488 -597 -612 -963 -32 -94 -71 -234 -80 -288 -3 -14 -9 -47 -14
-75 -27 -141 -35 -239 -35 -435 0 -195 8 -285 40 -450 56 -293 168 -580 325
-835 187 -305 500 -613 815 -802 406 -244 819 -355 1295 -348 113 2 214 5 225
8 11 3 47 8 80 11 130 15 332 64 478 117 647 234 1165 720 1432 1345 47 109
112 298 121 349 3 16 9 46 14 66 13 48 30 135 36 184 3 22 7 51 9 65 23 124
22 450 -1 608 -41 290 -116 533 -240 782 -62 124 -85 162 -171 291 -217 324
-554 618 -916 801 -186 93 -466 189 -621 212 -21 4 -41 8 -45 10 -3 2 -35 7
-71 11 -36 4 -67 8 -70 10 -7 4 -318 23 -323 19z m303 -273 c71 -11 130 -22
240 -46 321 -70 683 -260 945 -495 136 -122 306 -324 400 -472 165 -261 281
-596 320 -923 12 -105 13 -396 1 -475 -3 -19 -8 -57 -12 -85 -5 -43 -11 -77
-39 -208 -30 -142 -156 -447 -239 -582 -37 -59 -109 -169 -117 -179 -5 -6 -28
-36 -51 -66 -355 -461 -943 -778 -1534 -826 -145 -12 -383 -7 -484 10 -14 3
-41 7 -60 10 -95 15 -218 46 -324 81 -458 150 -850 444 -1127 845 -179 259
-314 602 -355 900 -3 25 -8 47 -9 50 -21 34 -21 546 0 580 1 3 6 28 9 55 16
122 77 338 133 475 171 412 450 754 813 995 264 176 571 299 845 339 23 4 52
9 65 11 14 3 57 8 95 11 39 4 71 8 73 9 8 7 341 -4 412 -14z"/>
<path d="M3327 4824 c-1 -1 -30 -5 -64 -8 -35 -4 -68 -8 -75 -11 -7 -2 -29 -6
-48 -9 -67 -10 -225 -67 -310 -112 -295 -157 -509 -415 -604 -726 -15 -48 -29
-97 -31 -109 -57 -294 -13 -589 125 -840 168 -306 442 -516 786 -605 137 -35
374 -42 515 -14 386 75 700 314 876 665 41 81 89 218 99 284 3 20 7 38 9 41 2
3 7 33 11 65 21 182 0 383 -58 550 -170 492 -625 820 -1151 829 -43 1 -79 1
-80 0z m253 -144 c402 -70 731 -351 859 -735 44 -133 55 -203 55 -350 0 -127
-8 -188 -40 -300 -51 -180 -141 -332 -279 -471 -99 -100 -174 -154 -292 -213
-607 -300 -1330 13 -1536 664 -14 44 -28 105 -32 135 -4 30 -9 58 -11 62 -7
11 -6 187 1 253 20 184 113 406 231 554 178 221 457 380 719 407 33 4 61 7 63
9 7 6 205 -5 262 -15z"/>
<path d="M3266 4155 c-33 -7 -92 -29 -131 -49 -320 -165 -411 -579 -189 -861
275 -352 824 -271 987 145 127 324 -64 684 -405 765 -75 18 -181 18 -262 0z"/>
<path d="M6519 3439 c0 -8 -2 -21 -3 -29 -2 -8 -6 -38 -10 -66 -6 -48 -5 -52
16 -58 13 -3 33 -6 45 -6 15 0 35 -21 72 -75 28 -41 51 -79 51 -84 0 -5 -12
-8 -27 -5 -94 14 -93 14 -93 39 0 17 -6 25 -17 26 -10 1 -28 3 -41 4 -16 2
-24 -4 -27 -19 -9 -46 -24 -171 -20 -174 2 -2 21 -6 43 -9 37 -5 41 -3 44 18
2 13 8 23 13 22 6 0 33 -4 60 -7 75 -8 138 -16 160 -21 11 -2 31 -4 44 -4 19
-1 23 -5 19 -26 -3 -14 0 -25 6 -26 6 -1 25 -3 42 -5 35 -4 33 -8 50 126 3 25
7 51 9 58 3 6 -2 12 -9 12 -7 0 -27 3 -43 6 -27 5 -31 3 -37 -21 -6 -22 -11
-26 -34 -21 -15 2 -49 8 -75 11 l-48 6 48 37 c26 20 50 39 53 42 3 3 20 16 38
29 26 18 40 21 77 17 39 -6 45 -4 46 11 0 10 4 42 8 70 4 29 5 57 2 62 -3 5
-23 11 -44 14 -32 4 -38 2 -43 -17 -3 -11 -32 -41 -66 -66 -33 -25 -71 -53
-83 -63 l-24 -18 -55 85 c-31 46 -56 94 -56 105 0 15 -6 21 -22 21 -13 0 -33
3 -45 6 -16 4 -23 2 -24 -7z"/>
<path d="M6441 2916 c-17 -52 -42 -158 -39 -161 2 -1 18 -7 37 -14 36 -12 50
-4 51 28 0 7 6 11 13 9 6 -3 72 -20 145 -39 127 -32 133 -35 129 -56 -5 -27
-1 -31 45 -38 l34 -6 23 92 c14 53 19 95 14 100 -5 5 -23 11 -40 15 -26 5 -32
3 -38 -15 -3 -12 -12 -21 -18 -21 -7 0 -70 15 -142 34 -125 32 -130 34 -128
58 1 22 -4 27 -37 36 -38 9 -39 9 -49 -22z"/>
<path d="M6450 2676 c0 -8 -15 -19 -34 -26 -125 -41 -153 -259 -39 -306 82
-35 136 -12 207 85 38 51 66 66 89 47 25 -20 26 -44 3 -78 -19 -28 -27 -33
-59 -31 -36 3 -37 2 -52 -49 -8 -28 -14 -52 -12 -53 1 0 20 -7 41 -14 34 -12
40 -11 48 3 5 9 17 16 28 16 27 0 78 46 101 91 26 51 27 128 3 170 -21 35 -76
69 -121 73 -45 4 -85 -21 -138 -89 -54 -69 -77 -84 -100 -65 -42 35 8 118 63
107 28 -6 30 -3 46 45 9 28 15 52 14 53 -2 1 -22 9 -45 18 -36 14 -43 15 -43
3z"/>
<path d="M6216 2262 l-44 -89 28 -16 c36 -22 60 -22 60 0 0 23 14 8 44 -49
l25 -48 -60 0 c-53 0 -60 2 -55 18 4 13 -4 23 -29 36 -19 11 -37 17 -38 15 -2
-2 -23 -40 -46 -84 -24 -44 -93 -149 -154 -234 l-110 -154 34 -28 c39 -33 47
-35 55 -14 4 8 11 15 16 15 6 0 62 -37 125 -81 106 -75 113 -83 98 -99 -14
-15 -14 -18 2 -31 53 -44 47 -45 107 35 31 42 56 80 56 85 0 5 -13 19 -29 31
-30 20 -30 20 -48 1 -18 -20 -19 -20 -56 12 l-38 32 25 34 c15 19 26 37 26 40
0 3 -16 17 -36 30 -34 24 -35 24 -49 5 -46 -64 -39 -61 -83 -30 l-40 28 31 44
c34 48 39 51 57 29 7 -8 18 -15 24 -15 12 0 56 60 56 76 0 5 -27 27 -59 49
-63 43 -73 57 -21 30 30 -15 33 -15 51 1 11 10 27 18 37 19 9 1 44 5 77 10
108 14 119 13 162 -6 50 -23 57 -32 43 -58 -9 -17 -6 -23 21 -36 17 -9 36 -14
43 -12 15 6 98 166 91 176 -2 5 -19 14 -36 21 -29 12 -33 12 -48 -9 l-17 -22
-45 25 c-40 23 -50 36 -93 125 -29 61 -46 108 -43 121 4 14 -3 25 -28 40 -18
11 -35 20 -39 20 -3 0 -26 -40 -50 -88z"/>
<path d="M5673 1458 c-26 -24 -58 -53 -72 -65 l-24 -22 47 -123 c27 -68 57
-144 67 -171 l19 -47 -53 26 c-28 15 -103 51 -166 81 l-114 54 -31 -29 c-17
-16 -49 -45 -70 -64 l-39 -36 22 -31 c23 -32 36 -38 46 -21 11 17 23 11 62
-32 21 -23 64 -70 96 -105 51 -56 56 -65 45 -83 -11 -17 -9 -23 14 -46 30 -31
34 -29 108 40 l52 49 -30 30 c-26 26 -33 28 -46 17 -9 -7 -16 -8 -16 -3 0 6
-17 27 -38 49 -82 83 -125 134 -106 127 10 -4 48 -21 84 -38 36 -17 102 -49
148 -70 l83 -39 30 31 c35 35 39 15 -45 241 -25 68 -46 126 -46 130 1 4 10 -4
21 -18 12 -14 40 -45 62 -70 91 -100 91 -99 79 -113 -9 -11 -5 -20 18 -42 33
-32 28 -34 113 45 l48 45 -30 29 c-26 25 -33 27 -46 16 -13 -11 -20 -8 -44 19
-36 41 -106 117 -144 158 -27 29 -28 33 -14 48 15 15 14 18 -10 45 -14 17 -28
30 -30 30 -2 0 -25 -19 -50 -42z"/>
<path d="M5008 931 c-47 -27 -106 -62 -131 -78 l-46 -28 20 -33 c21 -33 38
-39 55 -22 6 6 37 -37 87 -118 75 -122 77 -128 58 -143 -18 -15 -18 -16 3 -51
l21 -36 82 50 82 49 -16 35 c-14 29 -21 34 -43 29 -21 -4 -28 1 -48 36 -13 22
-22 42 -20 44 2 1 18 10 36 19 30 15 35 15 65 1 17 -9 50 -38 71 -64 l39 -48
58 34 c58 35 58 35 44 62 -28 52 -32 56 -48 43 -11 -9 -21 -4 -52 23 -21 20
-48 38 -60 41 -22 5 -22 7 -8 36 27 53 -11 134 -75 159 -48 19 -87 9 -174 -40z
m136 -67 c17 -16 21 -52 8 -69 -11 -16 -68 -55 -81 -55 -10 0 -66 88 -60 94
14 13 87 46 101 46 9 0 24 -7 32 -16z"/>
<path d="M4583 724 c-88 -32 -146 -120 -146 -219 1 -103 56 -189 147 -231 170
-79 347 78 304 269 -31 138 -179 226 -305 181z m137 -113 c31 -22 70 -96 70
-134 0 -139 -167 -170 -231 -44 -68 132 47 259 161 178z"/>
<path d="M4280 605 c-42 -12 -251 -62 -293 -71 -42 -8 -57 -16 -57 -32 1 -23
24 -110 32 -117 3 -3 25 0 49 6 43 12 44 13 41 45 -4 31 -2 34 22 34 28 0 25
6 64 -155 34 -137 33 -135 19 -135 -26 0 -36 -21 -25 -54 6 -17 12 -33 14 -35
2 -2 46 7 98 20 86 20 95 25 90 42 -6 19 -12 44 -13 59 -1 4 -12 3 -25 -2 -24
-9 -24 -7 -56 118 -17 70 -34 136 -36 147 -4 22 11 35 44 35 17 0 22 -6 22
-26 0 -25 2 -26 42 -20 22 4 45 9 50 13 15 9 -14 144 -30 142 -4 0 -27 -6 -52
-14z"/>
<path d="M3664 491 c-75 -34 -103 -100 -73 -178 19 -50 88 -93 152 -93 10 0
33 -7 52 -14 60 -26 41 -90 -26 -88 -36 1 -69 27 -69 54 0 19 -12 22 -72 12
-33 -6 -38 -10 -38 -33 0 -39 11 -72 22 -65 5 3 22 -5 36 -19 40 -37 66 -47
119 -47 99 1 175 63 177 144 2 90 -44 134 -164 157 -36 6 -71 16 -77 22 -35
27 9 81 57 72 26 -5 60 -39 60 -60 0 -10 44 -9 98 4 8 1 11 59 4 79 -2 6 -13
12 -23 12 -10 0 -19 4 -19 8 0 5 -17 18 -39 30 -48 27 -121 29 -177 3z"/>
</g>
</svg>
